<?xml version="1.0" standalone="no"?>
<!DOCTYPE svg PUBLIC "-//W3C//DTD SVG 20010904//EN"
 "http://www.w3.org/TR/2001/REC-SVG-20010904/DTD/svg10.dtd">
<svg version="1.0" xmlns="http://www.w3.org/2000/svg"
 width="512.000000pt" height="512.000000pt" viewBox="0 0 512.000000 512.000000"
 preserveAspectRatio="xMidYMid meet">
<metadata>
Created by potrace 1.11, written by Peter Selinger 2001-2013
</metadata>
<g transform="translate(0.000000,512.000000) scale(0.100000,-0.100000)"
fill="#000000" stroke="none">
<path d="M2290 4691 c-252 -36 -435 -90 -658 -197 -764 -364 -1253 -1169
-1218 -2004 6 -144 17 -244 27 -255 3 -2 43 -5 89 -6 47 -1 168 -7 270 -15
102 -7 237 -15 300 -19 63 -3 174 -10 245 -15 72 -5 182 -12 245 -15 63 -3
171 -10 240 -15 69 -5 188 -12 265 -15 l140 -7 -657 659 c-362 362 -658 661
-658 665 0 3 43 42 96 87 l95 81 723 0 c624 0 730 -2 767 -15 34 -12 83 -54
219 -188 96 -95 232 -228 301 -296 l127 -124 352 337 c313 297 357 336 385
336 41 0 152 -71 165 -106 6 -14 10 -144 10 -297 0 -216 16 -1168 33 -1997 l2
-114 51 64 c178 224 325 518 395 790 148 572 56 1191 -251 1680 -87 139 -166
237 -299 373 -336 343 -745 552 -1221 623 -166 25 -420 27 -580 5z"/>
<path d="M1400 3333 c0 -4 277 -285 616 -625 l617 -616 -6 -37 c-6 -34 -62
-119 -105 -158 -16 -15 -88 -18 -628 -27 -335 -5 -777 -10 -983 -10 -206 0
-376 -2 -379 -4 -7 -7 69 -187 120 -286 62 -117 141 -240 223 -345 80 -102
286 -304 390 -382 529 -398 1202 -530 1846 -364 145 37 268 85 429 167 161 81
276 157 284 186 3 13 6 97 6 188 0 91 6 415 15 720 23 866 35 1389 35 1464 l0
70 -93 -90 c-301 -292 -512 -491 -531 -501 -26 -15 -76 -16 -113 -2 -15 5
-174 156 -353 335 l-325 324 -533 0 c-292 0 -532 -3 -532 -7z"/>
</g>
</svg>
