<?xml version="1.0" standalone="no"?>
<!DOCTYPE svg PUBLIC "-//W3C//DTD SVG 20010904//EN"
 "http://www.w3.org/TR/2001/REC-SVG-20010904/DTD/svg10.dtd">
<svg version="1.0" xmlns="http://www.w3.org/2000/svg"
 width="496.000000pt" height="495.000000pt" viewBox="0 0 496.000000 495.000000"
 preserveAspectRatio="xMidYMid meet">
<metadata>
Created by potrace 1.15, written by Peter Selinger 2001-2017
</metadata>
<g transform="translate(0.000000,495.000000) scale(0.100000,-0.100000)"
fill="#000000" stroke="none">
<path d="M2366 4298 c4 -7 18 -27 32 -45 l23 -32 -38 -6 c-237 -41 -433 -147
-543 -294 l-40 -53 0 33 0 33 -50 -49 c-260 -256 -325 -657 -175 -1086 22 -65
25 -91 29 -258 2 -102 11 -232 20 -288 18 -116 79 -279 175 -471 l59 -118 205
-132 204 -132 152 0 c145 0 156 1 294 40 78 21 205 63 282 93 l140 53 72 105
c78 113 177 324 208 443 17 65 17 89 6 375 -13 298 -12 309 8 416 12 61 27
167 33 236 10 109 9 144 -5 248 -10 67 -31 163 -47 214 -47 145 -154 303 -257
375 l-33 23 0 -60 c0 -34 -4 -61 -10 -61 -5 0 -10 4 -10 9 0 5 -18 32 -40 60
-118 149 -341 270 -589 321 -117 24 -114 23 -105 8z m774 -890 c125 -131 209
-313 245 -529 16 -99 10 -136 -45 -294 -61 -175 -149 -296 -245 -341 -68 -32
-91 -31 -110 5 -19 38 -69 76 -120 91 -28 8 -141 11 -385 8 -333 -3 -346 -4
-386 -25 -45 -24 -104 -85 -104 -108 0 -20 -36 -19 -86 4 -87 39 -176 169
-240 345 -28 79 -34 111 -34 176 0 163 31 302 101 445 39 80 130 210 159 228
11 7 44 -1 111 -26 315 -118 669 -112 997 17 48 19 92 35 99 35 7 1 26 -14 43
-31z m-325 -1194 c30 -20 32 -47 4 -85 l-20 -29 -274 0 -274 0 -41 38 c-43 42
-50 65 -22 81 10 6 130 11 310 11 253 0 296 -2 317 -16z m-222 -179 l58 -29
-28 -15 c-48 -25 -158 -20 -225 11 -32 15 -58 31 -58 37 0 18 56 31 125 27 52
-2 85 -10 128 -31z"/>
<path d="M2106 2936 c-81 -11 -105 -27 -93 -60 7 -19 28 -19 146 -3 86 12 111
27 98 61 -7 19 -33 19 -151 2z"/>
<path d="M2753 2934 c-13 -34 12 -49 98 -61 118 -16 139 -16 146 3 13 34 -12
49 -98 61 -118 16 -139 16 -146 -3z"/>
<path d="M2109 2801 c-20 -20 -29 -39 -29 -61 0 -43 47 -90 90 -90 43 0 90 47
90 90 0 43 -47 90 -90 90 -22 0 -41 -9 -61 -29z"/>
<path d="M2779 2801 c-20 -20 -29 -39 -29 -61 0 -43 47 -90 90 -90 22 0 41 9
61 29 20 20 29 39 29 61 0 22 -9 41 -29 61 -20 20 -39 29 -61 29 -22 0 -41 -9
-61 -29z"/>
<path d="M2840 998 l0 -118 -41 -45 c-48 -52 -148 -105 -213 -112 -88 -10
-254 62 -327 143 -23 25 -27 40 -32 117 -3 49 -7 91 -10 93 -5 6 -112 -25
-392 -111 -77 -24 -174 -53 -215 -65 -41 -12 -185 -70 -320 -130 -135 -59
-284 -125 -331 -145 l-87 -37 32 -28 c118 -103 361 -256 523 -332 183 -85 391
-152 602 -193 l84 -17 56 63 c69 77 154 133 243 160 56 17 89 21 182 18 110
-4 115 -5 200 -47 62 -31 106 -62 148 -104 l60 -60 107 27 c297 77 604 225
847 408 152 115 158 121 143 134 -8 5 -140 89 -294 185 l-280 176 -342 69
-343 70 0 -119z"/>
<path d="M2457 159 c-88 -21 -246 -131 -215 -151 35 -22 615 -2 642 22 15 14
-113 99 -181 120 -69 21 -177 25 -246 9z"/>
</g>
</svg>
